<!-- Generator: Adobe Illustrator 24.0.1, SVG Export Plug-In  -->
<svg version="1.1" xmlns="http://www.w3.org/2000/svg" xmlns:xlink="http://www.w3.org/1999/xlink" x="0px" y="0px" width="27.2px"
	 height="2402px" viewBox="0 0 27.2 2402" style="enable-background:new 0 0 27.2 2402;" xml:space="preserve">
<style type="text/css">
	.st0{fill:none;stroke:#4E4CFF;stroke-width:2;stroke-linecap:round;stroke-linejoin:round;stroke-miterlimit:10;}
</style>
<defs>
</defs>
<line class="st0" x1="1" y1="2401" x2="26.2" y2="2401"/>
<line class="st0" x1="1" y1="2381" x2="16.6" y2="2381"/>
<line class="st0" x1="1" y1="2361" x2="16.6" y2="2361"/>
<line class="st0" x1="1" y1="2341" x2="16.6" y2="2341"/>
<line class="st0" x1="1" y1="2321" x2="16.6" y2="2321"/>
<line class="st0" x1="1" y1="2301" x2="26.2" y2="2301"/>
<line class="st0" x1="1" y1="2281" x2="16.6" y2="2281"/>
<line class="st0" x1="1" y1="2261" x2="16.6" y2="2261"/>
<line class="st0" x1="1" y1="2241" x2="16.6" y2="2241"/>
<line class="st0" x1="1" y1="2221" x2="16.6" y2="2221"/>
<line class="st0" x1="1" y1="2201" x2="26.2" y2="2201"/>
<line class="st0" x1="1" y1="2181" x2="16.6" y2="2181"/>
<line class="st0" x1="1" y1="2161" x2="16.6" y2="2161"/>
<line class="st0" x1="1" y1="2141" x2="16.6" y2="2141"/>
<line class="st0" x1="1" y1="2121" x2="16.6" y2="2121"/>
<line class="st0" x1="1" y1="2101" x2="26.2" y2="2101"/>
<line class="st0" x1="1" y1="2081" x2="16.6" y2="2081"/>
<line class="st0" x1="1" y1="2061" x2="16.6" y2="2061"/>
<line class="st0" x1="1" y1="2041" x2="16.6" y2="2041"/>
<line class="st0" x1="1" y1="2021" x2="16.6" y2="2021"/>
<line class="st0" x1="1" y1="2001" x2="26.2" y2="2001"/>
<line class="st0" x1="1" y1="1601" x2="26.2" y2="1601"/>
<line class="st0" x1="1" y1="1581" x2="16.6" y2="1581"/>
<line class="st0" x1="1" y1="1561" x2="16.6" y2="1561"/>
<line class="st0" x1="1" y1="1541" x2="16.6" y2="1541"/>
<line class="st0" x1="1" y1="1521" x2="16.6" y2="1521"/>
<line class="st0" x1="1" y1="1501" x2="26.2" y2="1501"/>
<line class="st0" x1="1" y1="1481" x2="16.6" y2="1481"/>
<line class="st0" x1="1" y1="1461" x2="16.6" y2="1461"/>
<line class="st0" x1="1" y1="1441" x2="16.6" y2="1441"/>
<line class="st0" x1="1" y1="1421" x2="16.6" y2="1421"/>
<line class="st0" x1="1" y1="1401" x2="26.2" y2="1401"/>
<line class="st0" x1="1" y1="1381" x2="16.6" y2="1381"/>
<line class="st0" x1="1" y1="1361" x2="16.6" y2="1361"/>
<line class="st0" x1="1" y1="1341" x2="16.6" y2="1341"/>
<line class="st0" x1="1" y1="1321" x2="16.6" y2="1321"/>
<line class="st0" x1="1" y1="1901" x2="26.2" y2="1901"/>
<line class="st0" x1="1" y1="1881" x2="16.6" y2="1881"/>
<line class="st0" x1="1" y1="1861" x2="16.6" y2="1861"/>
<line class="st0" x1="1" y1="1841" x2="16.6" y2="1841"/>
<line class="st0" x1="1" y1="1821" x2="16.6" y2="1821"/>
<line class="st0" x1="1" y1="1801" x2="26.2" y2="1801"/>
<line class="st0" x1="1" y1="1781" x2="16.6" y2="1781"/>
<line class="st0" x1="1" y1="1761" x2="16.6" y2="1761"/>
<line class="st0" x1="1" y1="1741" x2="16.6" y2="1741"/>
<line class="st0" x1="1" y1="1721" x2="16.6" y2="1721"/>
<line class="st0" x1="1" y1="1981" x2="16.6" y2="1981"/>
<line class="st0" x1="1" y1="1961" x2="16.6" y2="1961"/>
<line class="st0" x1="1" y1="1941" x2="16.6" y2="1941"/>
<line class="st0" x1="1" y1="1921" x2="16.6" y2="1921"/>
<line class="st0" x1="1" y1="1701" x2="26.2" y2="1701"/>
<line class="st0" x1="1" y1="1681" x2="16.6" y2="1681"/>
<line class="st0" x1="1" y1="1661" x2="16.6" y2="1661"/>
<line class="st0" x1="1" y1="1641" x2="16.6" y2="1641"/>
<line class="st0" x1="1" y1="1621" x2="16.6" y2="1621"/>
<line class="st0" x1="1" y1="1301" x2="26.2" y2="1301"/>
<line class="st0" x1="1" y1="1281" x2="16.6" y2="1281"/>
<line class="st0" x1="1" y1="1261" x2="16.6" y2="1261"/>
<line class="st0" x1="1" y1="1241" x2="16.6" y2="1241"/>
<line class="st0" x1="1" y1="1221" x2="16.6" y2="1221"/>
<line class="st0" x1="1" y1="1201" x2="26.2" y2="1201"/>
<line class="st0" x1="1" y1="1181" x2="16.6" y2="1181"/>
<line class="st0" x1="1" y1="1161" x2="16.6" y2="1161"/>
<line class="st0" x1="1" y1="1141" x2="16.6" y2="1141"/>
<line class="st0" x1="1" y1="1121" x2="16.6" y2="1121"/>
<line class="st0" x1="1" y1="1101" x2="26.2" y2="1101"/>
<line class="st0" x1="1" y1="1081" x2="16.6" y2="1081"/>
<line class="st0" x1="1" y1="1061" x2="16.6" y2="1061"/>
<line class="st0" x1="1" y1="1041" x2="16.6" y2="1041"/>
<line class="st0" x1="1" y1="1021" x2="16.6" y2="1021"/>
<line class="st0" x1="1" y1="1001" x2="26.2" y2="1001"/>
<line class="st0" x1="1" y1="601" x2="26.2" y2="601"/>
<line class="st0" x1="1" y1="581" x2="16.6" y2="581"/>
<line class="st0" x1="1" y1="561" x2="16.6" y2="561"/>
<line class="st0" x1="1" y1="541" x2="16.6" y2="541"/>
<line class="st0" x1="1" y1="521" x2="16.6" y2="521"/>
<line class="st0" x1="1" y1="501" x2="26.2" y2="501"/>
<line class="st0" x1="1" y1="481" x2="16.6" y2="481"/>
<line class="st0" x1="1" y1="461" x2="16.6" y2="461"/>
<line class="st0" x1="1" y1="441" x2="16.6" y2="441"/>
<line class="st0" x1="1" y1="421" x2="16.6" y2="421"/>
<line class="st0" x1="1" y1="401" x2="26.2" y2="401"/>
<line class="st0" x1="1" y1="381" x2="16.6" y2="381"/>
<line class="st0" x1="1" y1="361" x2="16.6" y2="361"/>
<line class="st0" x1="1" y1="341" x2="16.6" y2="341"/>
<line class="st0" x1="1" y1="321" x2="16.6" y2="321"/>
<line class="st0" x1="1" y1="901" x2="26.2" y2="901"/>
<line class="st0" x1="1" y1="881" x2="16.6" y2="881"/>
<line class="st0" x1="1" y1="861" x2="16.6" y2="861"/>
<line class="st0" x1="1" y1="841" x2="16.6" y2="841"/>
<line class="st0" x1="1" y1="821" x2="16.6" y2="821"/>
<line class="st0" x1="1" y1="801" x2="26.2" y2="801"/>
<line class="st0" x1="1" y1="781" x2="16.6" y2="781"/>
<line class="st0" x1="1" y1="761" x2="16.6" y2="761"/>
<line class="st0" x1="1" y1="741" x2="16.6" y2="741"/>
<line class="st0" x1="1" y1="721" x2="16.6" y2="721"/>
<line class="st0" x1="1" y1="981" x2="16.6" y2="981"/>
<line class="st0" x1="1" y1="961" x2="16.6" y2="961"/>
<line class="st0" x1="1" y1="941" x2="16.6" y2="941"/>
<line class="st0" x1="1" y1="921" x2="16.6" y2="921"/>
<line class="st0" x1="1" y1="701" x2="26.2" y2="701"/>
<line class="st0" x1="1" y1="681" x2="16.6" y2="681"/>
<line class="st0" x1="1" y1="661" x2="16.6" y2="661"/>
<line class="st0" x1="1" y1="641" x2="16.6" y2="641"/>
<line class="st0" x1="1" y1="621" x2="16.6" y2="621"/>
<line class="st0" x1="1" y1="301" x2="26.2" y2="301"/>
<line class="st0" x1="1" y1="281" x2="16.6" y2="281"/>
<line class="st0" x1="1" y1="261" x2="16.6" y2="261"/>
<line class="st0" x1="1" y1="241" x2="16.6" y2="241"/>
<line class="st0" x1="1" y1="221" x2="16.6" y2="221"/>
<line class="st0" x1="1" y1="201" x2="26.2" y2="201"/>
<line class="st0" x1="1" y1="181" x2="16.6" y2="181"/>
<line class="st0" x1="1" y1="161" x2="16.6" y2="161"/>
<line class="st0" x1="1" y1="141" x2="16.6" y2="141"/>
<line class="st0" x1="1" y1="121" x2="16.6" y2="121"/>
<line class="st0" x1="1" y1="101" x2="26.2" y2="101"/>
<line class="st0" x1="1" y1="81" x2="16.6" y2="81"/>
<line class="st0" x1="1" y1="61" x2="16.6" y2="61"/>
<line class="st0" x1="1" y1="41" x2="16.6" y2="41"/>
<line class="st0" x1="1" y1="21" x2="16.6" y2="21"/>
<line class="st0" x1="1" y1="1" x2="26.2" y2="1"/>
</svg>
